<?xml version="1.0" standalone="no"?>
<!DOCTYPE svg PUBLIC "-//W3C//DTD SVG 20010904//EN"
 "http://www.w3.org/TR/2001/REC-SVG-20010904/DTD/svg10.dtd">
<svg version="1.0" xmlns="http://www.w3.org/2000/svg"
 width="600.000000pt" height="184.000000pt" viewBox="0 0 600.000000 184.000000"
 preserveAspectRatio="xMidYMid meet">
<metadata>
Created by potrace 1.15, written by Peter Selinger 2001-2017
</metadata>
<g transform="translate(0.000000,184.000000) scale(0.100000,-0.100000)"
fill="#000000" stroke="none">
<path d="M1940 1834 c0 -3 50 -75 110 -159 l110 -153 0 -116 0 -116 45 0 45 0
0 115 0 115 115 154 c63 86 115 158 115 161 0 3 -22 5 -49 5 l-49 0 -83 -117
c-45 -65 -84 -120 -86 -123 -2 -2 -8 2 -13 10 -4 8 -41 63 -82 122 l-73 107
-52 1 c-29 0 -53 -3 -53 -6z"/>
<path d="M2540 1565 l0 -275 163 0 c149 0 167 2 207 23 107 53 117 197 19 256
l-30 18 25 16 c50 33 58 127 14 182 -37 47 -72 55 -243 55 l-155 0 0 -275z
m321 176 c26 -32 24 -73 -4 -100 -20 -18 -40 -23 -125 -28 l-102 -6 0 82 0 83
106 -4 c97 -3 107 -5 125 -27z m13 -230 c34 -32 40 -56 26 -91 -18 -44 -64
-60 -174 -60 l-96 0 0 91 0 91 109 -4 c99 -3 112 -6 135 -27z"/>
<path d="M343 877 c3 -8 53 -80 111 -162 l106 -148 0 -118 0 -119 45 0 45 0 0
114 0 114 120 161 c66 89 120 164 120 167 0 3 -24 4 -52 2 l-53 -3 -85 -123
c-77 -111 -86 -121 -97 -104 -7 10 -47 66 -88 125 l-76 107 -50 0 c-39 0 -50
-3 -46 -13z"/>
<path d="M1320 610 l0 -280 39 0 38 0 5 138 c3 92 9 144 18 159 32 50 114 63
153 25 20 -21 22 -33 25 -172 l3 -150 41 0 40 0 -4 168 c-3 184 -8 200 -64
227 -47 22 -142 19 -181 -5 l-33 -20 0 95 0 95 -40 0 -40 0 0 -280z"/>
<path d="M2240 610 l0 -280 40 0 40 0 0 280 0 280 -40 0 -40 0 0 -280z"/>
<path d="M2880 610 l0 -282 173 4 c151 3 176 5 207 23 40 23 80 93 80 140 0
39 -32 90 -72 115 -26 16 -29 20 -15 26 26 10 57 68 57 106 0 44 -34 95 -80
122 -29 18 -56 21 -192 24 l-158 4 0 -282z m314 179 c19 -15 26 -30 26 -54 0
-24 -7 -39 -26 -54 -23 -18 -41 -21 -125 -21 l-99 0 0 75 0 75 99 0 c84 0 102
-3 125 -21z m-5 -220 c31 -11 61 -52 61 -83 0 -9 -13 -30 -29 -48 -29 -33 -29
-33 -140 -36 l-111 -4 0 91 0 91 94 0 c51 0 107 -5 125 -11z"/>
<path d="M4573 853 c-30 -15 -33 -20 -33 -65 0 -45 -2 -48 -25 -48 -22 0 -25
-4 -25 -35 0 -30 3 -35 24 -35 l25 0 3 -156 c3 -140 5 -157 22 -170 25 -18 79
-28 112 -20 21 6 25 11 22 39 -3 28 -7 33 -38 37 l-35 5 -3 133 -3 132 36 0
c33 0 35 2 35 35 0 33 -2 35 -35 35 l-35 0 0 65 c0 36 -3 65 -7 64 -5 0 -23
-8 -40 -16z"/>
<path d="M945 726 c-38 -17 -80 -62 -94 -99 -29 -75 -4 -215 45 -259 81 -71
238 -61 306 20 51 61 59 185 16 262 -33 60 -80 85 -167 88 -49 1 -87 -3 -106
-12z m146 -61 c43 -23 69 -71 69 -128 0 -95 -44 -150 -119 -149 -52 1 -86 24
-105 73 -31 76 -12 159 43 196 40 27 71 29 112 8z"/>
<path d="M1865 725 c-74 -40 -104 -97 -105 -198 0 -143 81 -216 226 -204 77 6
122 31 153 87 13 23 21 43 20 44 -2 2 -22 6 -45 8 -36 5 -42 3 -57 -24 -23
-40 -74 -60 -120 -47 -32 9 -87 58 -87 79 0 5 -3 15 -6 24 -5 14 12 16 156 16
l163 0 -6 54 c-7 68 -27 108 -74 143 -31 24 -47 28 -112 31 -56 2 -84 -1 -106
-13z m145 -60 c33 -17 60 -52 60 -77 0 -16 -11 -18 -110 -18 -93 0 -110 2
-110 16 0 26 20 54 53 74 38 24 68 25 107 5z"/>
<path d="M3520 729 c-124 -50 -159 -262 -58 -356 82 -77 240 -68 311 16 40 48
36 68 -14 73 -36 3 -42 1 -55 -24 -8 -15 -24 -33 -36 -39 -30 -16 -95 -13
-125 6 -22 15 -53 69 -53 95 0 6 57 10 161 10 l161 0 -7 53 c-16 116 -83 177
-196 176 -35 0 -75 -5 -89 -10z m140 -64 c28 -14 60 -60 60 -85 0 -6 -42 -10
-116 -10 -115 0 -115 0 -109 23 22 70 101 105 165 72z"/>
<path d="M3890 535 l0 -205 40 0 40 0 0 139 c0 124 2 141 20 164 26 33 79 51
113 38 50 -19 57 -43 57 -198 l0 -143 40 0 40 0 0 160 c0 178 -8 208 -60 235
-42 22 -137 19 -183 -5 l-37 -20 0 20 c0 16 -7 20 -35 20 l-35 0 0 -205z"/>
<path d="M4340 535 l0 -205 45 0 45 0 0 205 0 205 -45 0 -45 0 0 -205z"/>
<path d="M4828 720 c-67 -36 -103 -114 -96 -209 9 -122 69 -181 191 -188 61
-4 79 -1 117 19 43 22 90 76 90 103 0 8 -17 15 -41 17 -35 3 -42 0 -56 -23
-29 -50 -100 -68 -152 -39 -26 13 -61 67 -61 93 0 15 14 17 155 17 l155 0 0
44 c0 79 -40 144 -107 172 -48 21 -150 17 -195 -6z m157 -55 c30 -15 45 -35
59 -77 5 -16 -5 -18 -109 -18 -74 0 -115 4 -115 10 0 27 34 73 63 85 42 18 62
18 102 0z"/>
<path d="M5190 705 l0 -34 119 -3 120 -3 -130 -139 c-102 -110 -129 -145 -129
-168 l0 -28 195 0 195 0 0 36 0 36 -138 -4 -138 -3 133 143 c108 116 133 149
133 173 l0 29 -180 0 -180 0 0 -35z"/>
<path d="M0 125 l0 -115 1300 0 1300 0 0 115 0 115 -1300 0 -1300 0 0 -115z"/>
<path d="M2740 115 l0 -115 130 0 130 0 0 115 0 115 -130 0 -130 0 0 -115z"/>
<path d="M3190 115 l0 -115 1405 0 1405 0 0 115 0 115 -1405 0 -1405 0 0 -115z"/>
</g>
</svg>
